<svg xmlns="http://www.w3.org/2000/svg" width="32" height="32" fill="none"><g clip-path="url(#a)"><path fill="#FCFCFC" d="M24 0H8a8 8 0 0 0-8 8v16a8 8 0 0 0 8 8h16a8 8 0 0 0 8-8V8a8 8 0 0 0-8-8Z"/><path fill="#202020" d="M11.885 9.152V22.88H6.4v-2.744h2.744v-8.24H6.4V9.153h5.485ZM22.856 20.136H25.6v2.744h-5.485V9.152H25.6v2.745h-2.744v8.239ZM14.63 11.897h-2.745v2.747h2.745v-2.747ZM20.115 17.388H17.37v2.748h2.744v-2.748Z"/><path fill="#202020" d="M17.373 14.644H14.63v2.747h2.744v-2.747Z"/></g><defs><clipPath id="a"><path fill="#fff" d="M0 0h32v32H0z"/></clipPath></defs></svg>
