<svg width="350" height="150" viewBox="0 0 350 150" fill="none" xmlns="http://www.w3.org/2000/svg">
<path d="M17.1229 53.8948V97.1049H0.000183105V88.4661H8.56566V62.5335H0.000183105V53.8948H17.1229Z" fill="#FCFCFC"/>
<path d="M51.3677 88.4661H59.9333V97.1049H42.8107V53.8948H59.9333V62.5335H51.3677V88.4661Z" fill="#FCFCFC"/>
<path d="M25.6885 62.5356H17.1231V71.1828H25.6885V62.5356Z" fill="#FCFCFC"/>
<path d="M42.8105 79.8198H34.2449V88.4668H42.8105V79.8198Z" fill="#FCFCFC"/>
<path d="M34.2536 71.1809H25.6882V79.8279H34.2536V71.1809Z" fill="#FCFCFC"/>
<path d="M80.8936 90.9582V59.8389H86.3409L102.427 82.4829L97.6842 79.7655H100.782V59.8389H107.02V90.9582H101.615L85.4864 68.2064L90.2287 70.9452H87.1312V90.9582H80.8936ZM119.161 91.3248C117.666 91.3248 116.342 91.0373 115.188 90.4623C114.034 89.8728 113.13 89.046 112.475 87.9821C111.82 86.904 111.492 85.6532 111.492 84.2297V84.2082C111.492 82.7848 111.841 81.5627 112.539 80.542C113.251 79.5213 114.284 78.7232 115.637 78.1481C116.989 77.5731 118.634 77.2209 120.571 77.0915L129.351 76.5738V80.4126L121.49 80.9302C120.194 81.0163 119.218 81.3111 118.563 81.8144C117.922 82.3031 117.602 82.9789 117.602 83.8414V83.8847C117.602 84.7617 117.937 85.4591 118.606 85.9765C119.29 86.4797 120.173 86.7313 121.255 86.7313C122.209 86.7313 123.057 86.5444 123.797 86.1706C124.552 85.7824 125.143 85.2577 125.57 84.5963C126.012 83.9351 126.232 83.1946 126.232 82.3751V74.9348C126.232 73.8997 125.898 73.1019 125.228 72.5412C124.573 71.9659 123.612 71.6784 122.344 71.6784C121.205 71.6784 120.286 71.8869 119.589 72.3038C118.891 72.7064 118.428 73.2671 118.2 73.9861L118.157 74.0939H112.411L112.432 73.8781C112.589 72.4692 113.094 71.24 113.949 70.1904C114.818 69.1409 115.993 68.3286 117.474 67.7535C118.955 67.164 120.678 66.8693 122.644 66.8693C124.709 66.8693 126.467 67.1856 127.92 67.8182C129.372 68.4508 130.483 69.3637 131.252 70.557C132.022 71.7504 132.406 73.1737 132.406 74.827V90.9582H126.232V87.7449H125.912C125.513 88.4926 124.979 89.1395 124.31 89.6858C123.64 90.2178 122.871 90.6277 122.003 90.9152C121.134 91.1883 120.187 91.3248 119.161 91.3248ZM147.859 91.4542C145.438 91.4542 143.373 90.9726 141.664 90.0093C139.955 89.0317 138.645 87.6228 137.733 85.7824C136.836 83.9421 136.387 81.7281 136.387 79.1401V79.0971C136.387 76.5235 136.836 74.3238 137.733 72.4979C138.645 70.6721 139.955 69.2775 141.664 68.3142C143.373 67.3509 145.431 66.8693 147.838 66.8693C149.917 66.8693 151.704 67.2359 153.2 67.9691C154.709 68.7024 155.898 69.7232 156.767 71.0315C157.636 72.3398 158.148 73.871 158.305 75.6249V75.7112H152.516L152.495 75.6249C152.295 74.4892 151.804 73.5692 151.021 72.8645C150.252 72.16 149.205 71.8078 147.88 71.8078C146.784 71.8078 145.851 72.0953 145.082 72.6706C144.327 73.2313 143.743 74.0579 143.33 75.1505C142.931 76.2289 142.732 77.5444 142.732 79.0971V79.1401C142.732 80.7217 142.931 82.0659 143.33 83.173C143.743 84.2657 144.334 85.0995 145.103 85.6746C145.872 86.2353 146.798 86.5157 147.88 86.5157C149.162 86.5157 150.18 86.1995 150.935 85.5668C151.704 84.9341 152.217 84.0212 152.473 82.828L152.516 82.7417L158.305 82.7201L158.284 82.8711C158.099 84.5819 157.572 86.0845 156.703 87.3783C155.834 88.6578 154.652 89.6571 153.157 90.3759C151.676 91.0947 149.91 91.4542 147.859 91.4542ZM172.519 91.4542C170.141 91.4542 168.097 90.9582 166.388 89.9663C164.679 88.9743 163.362 87.5651 162.436 85.7393C161.525 83.8991 161.069 81.721 161.069 79.2048V79.1834C161.069 76.6818 161.525 74.5108 162.436 72.6706C163.362 70.8158 164.658 69.3853 166.324 68.3789C168.005 67.3725 169.984 66.8693 172.263 66.8693C174.542 66.8693 176.507 67.3581 178.159 68.3358C179.811 69.3134 181.085 70.6936 181.983 72.4765C182.88 74.2447 183.328 76.3223 183.328 78.7088V80.6497H164.166V76.7032H180.359L177.411 80.4342V77.9326C177.411 76.538 177.197 75.3663 176.77 74.4174C176.343 73.4685 175.752 72.7567 174.997 72.2824C174.242 71.8078 173.366 71.5706 172.37 71.5706C171.373 71.5706 170.49 71.8151 169.721 72.3038C168.952 72.7927 168.346 73.5115 167.905 74.4604C167.463 75.4094 167.243 76.5668 167.243 77.9326V80.4556C167.243 81.7784 167.456 82.9071 167.883 83.8414C168.325 84.776 168.952 85.4948 169.763 85.9981C170.575 86.5014 171.537 86.7529 172.647 86.7529C173.544 86.7529 174.306 86.6164 174.933 86.3433C175.574 86.0701 176.094 85.7466 176.493 85.3727C176.891 84.9845 177.162 84.6252 177.304 84.2944L177.347 84.165H183.136L183.094 84.4021C182.908 85.1642 182.574 85.9621 182.089 86.796C181.605 87.6155 180.936 88.3776 180.081 89.082C179.241 89.7865 178.194 90.3616 176.941 90.8072C175.688 91.2387 174.214 91.4542 172.519 91.4542ZM187.395 90.9582V67.3653H193.633V71.1393H193.954C194.324 69.8166 195.007 68.7887 196.004 68.0554C197.001 67.3222 198.24 66.9556 199.721 66.9556C200.12 66.9556 200.512 66.9843 200.896 67.0418C201.281 67.0993 201.623 67.1712 201.922 67.2575V72.7567C201.509 72.6417 201.067 72.5555 200.597 72.4979C200.141 72.4261 199.672 72.3901 199.187 72.3901C198.048 72.3901 197.058 72.6059 196.218 73.0372C195.392 73.4685 194.751 74.0866 194.295 74.8917C193.854 75.6825 193.633 76.6385 193.633 77.7599V90.9582H187.395ZM229.068 91.6914C226.078 91.6914 223.493 91.0373 221.314 89.7291C219.148 88.4063 217.475 86.5301 216.293 84.1003C215.125 81.6707 214.541 78.7735 214.541 75.4094V75.3663C214.541 72.0019 215.125 69.105 216.293 66.6752C217.475 64.2455 219.148 62.3764 221.314 61.0681C223.493 59.7598 226.069 59.1056 229.047 59.1056C231.51 59.1056 233.71 59.5945 235.648 60.5721C237.598 61.5354 239.173 62.8653 240.369 64.5618C241.566 66.2583 242.255 68.1992 242.441 70.3845L242.463 70.6433H236.182L236.138 70.4492C235.924 69.2847 235.491 68.2711 234.835 67.4084C234.194 66.5314 233.382 65.8485 232.4 65.3597C231.418 64.8709 230.3 64.6265 229.047 64.6265C227.437 64.6265 226.034 65.065 224.838 65.942C223.657 66.8046 222.744 68.041 222.103 69.6513C221.463 71.2471 221.143 73.152 221.143 75.3663V75.4094C221.143 77.6091 221.463 79.5213 222.103 81.1457C222.744 82.756 223.657 83.9998 224.838 84.8767C226.034 85.7393 227.445 86.1706 229.068 86.1706C230.307 86.1706 231.418 85.9478 232.4 85.5021C233.382 85.0421 234.194 84.3951 234.835 83.5612C235.476 82.7273 235.918 81.7424 236.16 80.6067L236.202 80.4126H242.484L242.463 80.6497C242.248 82.8351 241.544 84.7546 240.347 86.408C239.166 88.0614 237.606 89.3552 235.668 90.2898C233.745 91.2241 231.547 91.6914 229.068 91.6914ZM257.23 91.4542C254.853 91.4542 252.796 90.9655 251.057 89.9877C249.333 89.01 248.01 87.6011 247.085 85.7609C246.159 83.9207 245.696 81.721 245.696 79.1618V79.1187C245.696 76.5882 246.166 74.4101 247.107 72.5842C248.045 70.7439 249.377 69.335 251.101 68.3573C252.825 67.3653 254.868 66.8693 257.23 66.8693C259.61 66.8693 261.66 67.3653 263.384 68.3573C265.108 69.335 266.431 70.7368 267.356 72.5626C268.297 74.3885 268.767 76.5738 268.767 79.1187V79.1618C268.767 81.721 268.303 83.9207 267.378 85.7609C266.453 87.6011 265.129 89.01 263.406 89.9877C261.682 90.9655 259.623 91.4542 257.23 91.4542ZM257.23 86.5157C258.328 86.5157 259.254 86.2282 260.008 85.6532C260.778 85.0635 261.369 84.2226 261.783 83.1299C262.194 82.0372 262.402 80.7217 262.402 79.1834V79.1401C262.402 77.6018 262.194 76.2863 261.783 75.1936C261.369 74.1009 260.778 73.2671 260.008 72.692C259.238 72.1026 258.313 71.8078 257.23 71.8078C256.163 71.8078 255.244 72.1026 254.476 72.692C253.706 73.2671 253.116 74.1009 252.702 75.1936C252.289 76.2863 252.083 77.6018 252.083 79.1401V79.1834C252.083 80.7217 252.282 82.0443 252.68 83.1513C253.094 84.244 253.684 85.0779 254.454 85.6532C255.224 86.2282 256.15 86.5157 257.23 86.5157ZM281.251 91.3679C279.3 91.3679 277.611 90.8792 276.187 89.9016C274.763 88.9096 273.667 87.5077 272.897 85.6962C272.129 83.8704 271.744 81.6994 271.744 79.1834V79.1401C271.744 76.6098 272.123 74.4388 272.878 72.6273C273.645 70.8015 274.735 69.3997 276.146 68.422C277.57 67.4444 279.265 66.9556 281.229 66.9556C282.312 66.9556 283.308 67.1281 284.22 67.4731C285.145 67.8182 285.95 68.307 286.635 68.9396C287.333 69.5722 287.879 70.327 288.28 71.204H288.599V58.5449H294.838V90.9582H288.599V87.2273H288.28C287.879 88.0901 287.339 88.8305 286.654 89.4486C285.972 90.0524 285.173 90.527 284.263 90.8719C283.351 91.2027 282.347 91.3679 281.251 91.3679ZM283.367 86.1492C284.447 86.1492 285.381 85.8687 286.164 85.308C286.961 84.7473 287.573 83.9494 288.002 82.9142C288.442 81.8648 288.663 80.621 288.663 79.1834V79.1401C288.663 77.7025 288.442 76.4661 288.002 75.431C287.56 74.3814 286.941 73.5762 286.143 73.0155C285.359 72.4548 284.434 72.1744 283.367 72.1744C282.284 72.1744 281.343 72.4548 280.545 73.0155C279.762 73.5762 279.158 74.3814 278.729 75.431C278.303 76.4661 278.088 77.7025 278.088 79.1401V79.1834C278.088 80.621 278.303 81.8648 278.729 82.9142C279.158 83.9494 279.762 84.7473 280.545 85.308C281.343 85.8687 282.284 86.1492 283.367 86.1492ZM310.568 91.4542C308.19 91.4542 306.145 90.9582 304.437 89.9663C302.728 88.9743 301.411 87.5651 300.484 85.7393C299.574 83.8991 299.117 81.721 299.117 79.2048V79.1834C299.117 76.6818 299.574 74.5108 300.484 72.6706C301.411 70.8158 302.706 69.3853 304.373 68.3789C306.053 67.3725 308.033 66.8693 310.312 66.8693C312.589 66.8693 314.556 67.3581 316.208 68.3358C317.859 69.3134 319.134 70.6936 320.031 72.4765C320.928 74.2447 321.377 76.3223 321.377 78.7088V80.6497H302.214V76.7032H318.408L315.459 80.4342V77.9326C315.459 76.538 315.247 75.3663 314.818 74.4174C314.392 73.4685 313.801 72.7567 313.047 72.2824C312.292 71.8078 311.415 71.5706 310.417 71.5706C309.422 71.5706 308.538 71.8151 307.77 72.3038C307 72.7927 306.394 73.5115 305.953 74.4604C305.513 75.4094 305.292 76.5668 305.292 77.9326V80.4556C305.292 81.7784 305.504 82.9071 305.933 83.8414C306.375 84.776 307 85.4948 307.812 85.9981C308.623 86.5014 309.586 86.7529 310.695 86.7529C311.594 86.7529 312.355 86.6164 312.981 86.3433C313.622 86.0701 314.142 85.7466 314.541 85.3727C314.941 84.9845 315.21 84.6252 315.352 84.2944L315.396 84.165H321.184L321.143 84.4021C320.957 85.1642 320.622 85.9621 320.138 86.796C319.653 87.6155 318.986 88.3776 318.13 89.082C317.29 89.7865 316.243 90.3616 314.989 90.8072C313.736 91.2387 312.263 91.4542 310.568 91.4542ZM334.801 91.4542C332.679 91.4542 330.87 91.1594 329.374 90.57C327.88 89.9663 326.705 89.1324 325.85 88.0684C325.01 87.0044 324.511 85.7824 324.354 84.4021V84.2944H330.463L330.507 84.4021C330.75 85.1786 331.227 85.8113 331.938 86.3C332.651 86.7746 333.627 87.0117 334.865 87.0117C335.663 87.0117 336.352 86.904 336.936 86.6882C337.536 86.4727 337.997 86.1779 338.325 85.804C338.653 85.4158 338.818 84.9631 338.818 84.4454V84.4021C338.818 83.7697 338.568 83.252 338.069 82.8495C337.571 82.4469 336.737 82.109 335.569 81.8358L331.638 80.9949C330.157 80.6787 328.919 80.2185 327.922 79.6147C326.924 79.0107 326.178 78.2632 325.679 77.3719C325.181 76.4804 324.931 75.4454 324.931 74.2663V74.2447C324.931 72.764 325.338 71.4699 326.15 70.363C326.961 69.2559 328.101 68.4005 329.567 67.7966C331.034 67.1784 332.743 66.8693 334.694 66.8693C336.744 66.8693 338.483 67.1856 339.907 67.8182C341.344 68.4364 342.449 69.2775 343.217 70.3414C343.987 71.4052 344.413 72.5842 344.498 73.8781V73.9861H338.71L338.688 73.8781C338.546 73.188 338.133 72.5913 337.45 72.0883C336.766 71.5706 335.84 71.3118 334.672 71.3118C333.961 71.3118 333.327 71.4196 332.771 71.6353C332.231 71.8365 331.802 72.1313 331.489 72.5195C331.177 72.8934 331.019 73.3461 331.019 73.8781V73.8998C331.019 74.3167 331.126 74.6833 331.341 74.9995C331.553 75.3016 331.896 75.5675 332.364 75.7976C332.85 76.0275 333.491 76.2359 334.287 76.423L338.196 77.2639C340.561 77.7816 342.291 78.558 343.389 79.5931C344.498 80.614 345.054 81.9942 345.054 83.7337V83.7553C345.054 85.308 344.612 86.6666 343.731 87.8312C342.862 88.9813 341.659 89.8728 340.119 90.5053C338.581 91.138 336.809 91.4542 334.801 91.4542Z" fill="#FCFCFC"/>
</svg>
